{
    "asset" : {
        "generator" : "Khronos glTF Blender I/O v1.3.48",
        "version" : "2.0"
    },
    "scene" : 0,
    "scenes" : [
        {
            "name" : "Scene",
            "nodes" : [
                0,
                1
            ]
        }
    ],
    "nodes" : [
        {
            "mesh" : 0,
            "name" : "Mast",
            "translation" : [
                1,
                1.9863786697387695,
                0
            ]
        },
        {
            "mesh" : 1,
            "name" : "Sail",
            "translation" : [
                1,
                1.9863786697387695,
                0
            ]
        }
    ],
    "materials" : [
        {
            "doubleSided" : true,
            "emissiveFactor" : [
                0,
                0,
                0
            ],
            "name" : "mast-wood",
            "pbrMetallicRoughness" : {
                "baseColorFactor" : [
                    0.1529262363910675,
                    0.038204342126846313,
                    0.0021246932446956635,
                    1
                ],
                "metallicFactor" : 0,
                "roughnessFactor" : 0.5
            }
        },
        {
            "doubleSided" : true,
            "emissiveFactor" : [
                0,
                0,
                0
            ],
            "name" : "mast-gold-trim",
            "pbrMetallicRoughness" : {
                "baseColorFactor" : [
                    0.7991032600402832,
                    0.3094688057899475,
                    0.011612273752689362,
                    1
                ],
                "metallicFactor" : 0,
                "roughnessFactor" : 0.5
            }
        },
        {
            "doubleSided" : true,
            "emissiveFactor" : [
                0,
                0,
                0
            ],
            "name" : "mast-sail",
            "pbrMetallicRoughness" : {
                "baseColorFactor" : [
                    0.6382717490196228,
                    0.514667809009552,
                    0.26254186034202576,
                    1
                ],
                "metallicFactor" : 0,
                "roughnessFactor" : 0.5
            }
        }
    ],
    "meshes" : [
        {
            "name" : "Cylinder",
            "primitives" : [
                {
                    "attributes" : {
                        "POSITION" : 0,
                        "NORMAL" : 1,
                        "TEXCOORD_0" : 2
                    },
                    "indices" : 3,
                    "material" : 0
                },
                {
                    "attributes" : {
                        "POSITION" : 4,
                        "NORMAL" : 5,
                        "TEXCOORD_0" : 6
                    },
                    "indices" : 7,
                    "material" : 1
                }
            ]
        },
        {
            "name" : "Cylinder.001",
            "primitives" : [
                {
                    "attributes" : {
                        "POSITION" : 8,
                        "NORMAL" : 9,
                        "TEXCOORD_0" : 10
                    },
                    "indices" : 11,
                    "material" : 2
                }
            ]
        }
    ],
    "accessors" : [
        {
            "bufferView" : 0,
            "componentType" : 5126,
            "count" : 260,
            "max" : [
                0.27048707008361816,
                6.253328323364258,
                0.2645561099052429
            ],
            "min" : [
                -0.2704870402812958,
                -1.0135670900344849,
                -0.27247369289398193
            ],
            "type" : "VEC3"
        },
        {
            "bufferView" : 1,
            "componentType" : 5126,
            "count" : 260,
            "type" : "VEC3"
        },
        {
            "bufferView" : 2,
            "componentType" : 5126,
            "count" : 260,
            "type" : "VEC2"
        },
        {
            "bufferView" : 3,
            "componentType" : 5123,
            "count" : 384,
            "type" : "SCALAR"
        },
        {
            "bufferView" : 4,
            "componentType" : 5126,
            "count" : 104,
            "max" : [
                0.27048707008361816,
                -0.9115539789199829,
                0.2645561099052429
            ],
            "min" : [
                -0.2704870402812958,
                -1.0135670900344849,
                -0.27247369289398193
            ],
            "type" : "VEC3"
        },
        {
            "bufferView" : 5,
            "componentType" : 5126,
            "count" : 104,
            "type" : "VEC3"
        },
        {
            "bufferView" : 6,
            "componentType" : 5126,
            "count" : 104,
            "type" : "VEC2"
        },
        {
            "bufferView" : 7,
            "componentType" : 5123,
            "count" : 156,
            "type" : "SCALAR"
        },
        {
            "bufferView" : 8,
            "componentType" : 5126,
            "count" : 466,
            "max" : [
                -0.4215444326400757,
                5.80495023727417,
                2.6348469257354736
            ],
            "min" : [
                -1.3160864114761353,
                0.5130323767662048,
                -2.657069444656372
            ],
            "type" : "VEC3"
        },
        {
            "bufferView" : 9,
            "componentType" : 5126,
            "count" : 466,
            "type" : "VEC3"
        },
        {
            "bufferView" : 10,
            "componentType" : 5126,
            "count" : 466,
            "type" : "VEC2"
        },
        {
            "bufferView" : 11,
            "componentType" : 5123,
            "count" : 726,
            "type" : "SCALAR"
        }
    ],
    "bufferViews" : [
        {
            "buffer" : 0,
            "byteLength" : 3120,
            "byteOffset" : 0
        },
        {
            "buffer" : 0,
            "byteLength" : 3120,
            "byteOffset" : 3120
        },
        {
            "buffer" : 0,
            "byteLength" : 2080,
            "byteOffset" : 6240
        },
        {
            "buffer" : 0,
            "byteLength" : 768,
            "byteOffset" : 8320
        },
        {
            "buffer" : 0,
            "byteLength" : 1248,
            "byteOffset" : 9088
        },
        {
            "buffer" : 0,
            "byteLength" : 1248,
            "byteOffset" : 10336
        },
        {
            "buffer" : 0,
            "byteLength" : 832,
            "byteOffset" : 11584
        },
        {
            "buffer" : 0,
            "byteLength" : 312,
            "byteOffset" : 12416
        },
        {
            "buffer" : 0,
            "byteLength" : 5592,
            "byteOffset" : 12728
        },
        {
            "buffer" : 0,
            "byteLength" : 5592,
            "byteOffset" : 18320
        },
        {
            "buffer" : 0,
            "byteLength" : 3728,
            "byteOffset" : 23912
        },
        {
            "buffer" : 0,
            "byteLength" : 1452,
            "byteOffset" : 27640
        }
    ],
    "buffers" : [
        {
            "byteLength" : 29092,
            "uri" : "data:application/octet-stream;base64,"
        }
    ]
}
