{
    "asset" : {
        "generator" : "Khronos glTF Blender I/O v1.3.48",
        "version" : "2.0"
    },
    "scene" : 0,
    "scenes" : [
        {
            "name" : "Scene",
            "nodes" : [
                1
            ]
        }
    ],
    "nodes" : [
        {
            "mesh" : 0,
            "name" : "Level-colonly"
        },
        {
            "children" : [
                0
            ],
            "mesh" : 1,
            "name" : "Level",
            "translation" : [
                0,
                0.3508763015270233,
                0
            ]
        }
    ],
    "materials" : [
        {
            "doubleSided" : true,
            "emissiveFactor" : [
                0,
                0,
                0
            ],
            "name" : "Material",
            "pbrMetallicRoughness" : {
                "metallicFactor" : 0,
                "roughnessFactor" : 0.4000000059604645
            }
        }
    ],
    "meshes" : [
        {
            "name" : "Grid.001",
            "primitives" : [
                {
                    "attributes" : {
                        "POSITION" : 0,
                        "NORMAL" : 1,
                        "TEXCOORD_0" : 2
                    },
                    "indices" : 3,
                    "material" : 0
                }
            ]
        },
        {
            "name" : "Grid",
            "primitives" : [
                {
                    "attributes" : {
                        "POSITION" : 4,
                        "NORMAL" : 5,
                        "TEXCOORD_0" : 6
                    },
                    "indices" : 3
                }
            ]
        }
    ],
    "accessors" : [
        {
            "bufferView" : 0,
            "componentType" : 5126,
            "count" : 6751,
            "max" : [
                25,
                4.117372035980225,
                25
            ],
            "min" : [
                -25,
                -1.9603012800216675,
                -25
            ],
            "type" : "VEC3"
        },
        {
            "bufferView" : 1,
            "componentType" : 5126,
            "count" : 6751,
            "type" : "VEC3"
        },
        {
            "bufferView" : 2,
            "componentType" : 5126,
            "count" : 6751,
            "type" : "VEC2"
        },
        {
            "bufferView" : 3,
            "componentType" : 5123,
            "count" : 14406,
            "type" : "SCALAR"
        },
        {
            "bufferView" : 4,
            "componentType" : 5126,
            "count" : 6751,
            "max" : [
                25,
                4.117372035980225,
                25
            ],
            "min" : [
                -25,
                -1.9603012800216675,
                -25
            ],
            "type" : "VEC3"
        },
        {
            "bufferView" : 5,
            "componentType" : 5126,
            "count" : 6751,
            "type" : "VEC3"
        },
        {
            "bufferView" : 6,
            "componentType" : 5126,
            "count" : 6751,
            "type" : "VEC2"
        }
    ],
    "bufferViews" : [
        {
            "buffer" : 0,
            "byteLength" : 81012,
            "byteOffset" : 0
        },
        {
            "buffer" : 0,
            "byteLength" : 81012,
            "byteOffset" : 81012
        },
        {
            "buffer" : 0,
            "byteLength" : 54008,
            "byteOffset" : 162024
        },
        {
            "buffer" : 0,
            "byteLength" : 28812,
            "byteOffset" : 216032
        },
        {
            "buffer" : 0,
            "byteLength" : 81012,
            "byteOffset" : 244844
        },
        {
            "buffer" : 0,
            "byteLength" : 81012,
            "byteOffset" : 325856
        },
        {
            "buffer" : 0,
            "byteLength" : 54008,
            "byteOffset" : 406868
        }
    ],
    "buffers" : [
        {
            "byteLength" : 460876,
            "uri" : "data:application/octet-stream;base64,"
        }
    ]
}
